<mxfile host="app.diagrams.net" modified="2023-06-07T15:54:37.559Z" agent="Mozilla/5.0 (Windows NT 10.0; Win64; x64) AppleWebKit/537.36 (KHTML, like Gecko) Chrome/112.0.0.0 Safari/537.36" etag="1tdC89C0H4WVrukN-rhR" version="21.3.7" type="device">
  <diagram name="Page-1" id="edf60f1a-56cd-e834-aa8a-f176f3a09ee4">
    <mxGraphModel dx="1390" dy="790" grid="1" gridSize="10" guides="1" tooltips="1" connect="1" arrows="1" fold="1" page="1" pageScale="1" pageWidth="1100" pageHeight="850" background="none" math="0" shadow="0">
      <root>
        <mxCell id="0" />
        <mxCell id="1" parent="0" />
        <mxCell id="VLLOeuI2McBih2gkQcHJ-11" value="" style="edgeStyle=orthogonalEdgeStyle;rounded=0;orthogonalLoop=1;jettySize=auto;html=1;" edge="1" parent="1" source="VLLOeuI2McBih2gkQcHJ-1" target="VLLOeuI2McBih2gkQcHJ-5">
          <mxGeometry relative="1" as="geometry" />
        </mxCell>
        <mxCell id="VLLOeuI2McBih2gkQcHJ-1" value="Begin" style="ellipse;whiteSpace=wrap;html=1;" vertex="1" parent="1">
          <mxGeometry x="240" y="100" width="120" height="80" as="geometry" />
        </mxCell>
        <mxCell id="VLLOeuI2McBih2gkQcHJ-2" value="&lt;h1&gt;Pseudo-code&lt;/h1&gt;" style="text;html=1;strokeColor=none;fillColor=none;spacing=5;spacingTop=-20;whiteSpace=wrap;overflow=hidden;rounded=0;" vertex="1" parent="1">
          <mxGeometry x="530" y="50" width="190" height="120" as="geometry" />
        </mxCell>
        <mxCell id="VLLOeuI2McBih2gkQcHJ-3" value="&lt;h1&gt;Flowchart&lt;/h1&gt;" style="text;html=1;strokeColor=none;fillColor=none;spacing=5;spacingTop=-20;whiteSpace=wrap;overflow=hidden;rounded=0;" vertex="1" parent="1">
          <mxGeometry x="240" y="50" width="190" height="40" as="geometry" />
        </mxCell>
        <mxCell id="VLLOeuI2McBih2gkQcHJ-4" value="Begin&lt;br&gt;&lt;span style=&quot;white-space: pre;&quot;&gt;&#x9;&lt;/span&gt;Input a, b, c&lt;br&gt;&lt;span style=&quot;white-space: pre;&quot;&gt;&#x9;&lt;/span&gt;If a &amp;gt; b:&lt;br&gt;&lt;span style=&quot;white-space: pre;&quot;&gt;&#x9;&lt;/span&gt;&lt;span style=&quot;white-space: pre;&quot;&gt;&#x9;&lt;/span&gt;MAX = a&lt;br&gt;&lt;span style=&quot;white-space: pre;&quot;&gt;&#x9;&lt;/span&gt;Else:&lt;br&gt;&lt;span style=&quot;white-space: pre;&quot;&gt;&#x9;&lt;/span&gt;&lt;span style=&quot;white-space: pre;&quot;&gt;&#x9;&lt;/span&gt;MAX = b&lt;br&gt;&lt;span style=&quot;white-space: pre;&quot;&gt;&#x9;&lt;/span&gt;If MAX &amp;lt; c:&lt;br&gt;&lt;span style=&quot;white-space: pre;&quot;&gt;&#x9;&lt;/span&gt;&lt;span style=&quot;white-space: pre;&quot;&gt;&#x9;&lt;/span&gt;MAX = c&lt;br&gt;&lt;span style=&quot;white-space: pre;&quot;&gt;&#x9;&lt;/span&gt;Display MAX&lt;br&gt;End" style="text;html=1;strokeColor=none;fillColor=none;align=left;verticalAlign=middle;whiteSpace=wrap;rounded=0;" vertex="1" parent="1">
          <mxGeometry x="540" y="95" width="340" height="155" as="geometry" />
        </mxCell>
        <mxCell id="VLLOeuI2McBih2gkQcHJ-12" value="" style="edgeStyle=orthogonalEdgeStyle;rounded=0;orthogonalLoop=1;jettySize=auto;html=1;" edge="1" parent="1" source="VLLOeuI2McBih2gkQcHJ-5" target="VLLOeuI2McBih2gkQcHJ-6">
          <mxGeometry relative="1" as="geometry" />
        </mxCell>
        <mxCell id="VLLOeuI2McBih2gkQcHJ-5" value="Input a, b, c" style="shape=parallelogram;perimeter=parallelogramPerimeter;whiteSpace=wrap;html=1;fixedSize=1;" vertex="1" parent="1">
          <mxGeometry x="240" y="210" width="120" height="60" as="geometry" />
        </mxCell>
        <mxCell id="VLLOeuI2McBih2gkQcHJ-13" value="" style="edgeStyle=orthogonalEdgeStyle;rounded=0;orthogonalLoop=1;jettySize=auto;html=1;" edge="1" parent="1" source="VLLOeuI2McBih2gkQcHJ-6" target="VLLOeuI2McBih2gkQcHJ-8">
          <mxGeometry relative="1" as="geometry" />
        </mxCell>
        <mxCell id="VLLOeuI2McBih2gkQcHJ-15" style="edgeStyle=orthogonalEdgeStyle;rounded=0;orthogonalLoop=1;jettySize=auto;html=1;exitX=1;exitY=0.5;exitDx=0;exitDy=0;entryX=0.5;entryY=0;entryDx=0;entryDy=0;" edge="1" parent="1" source="VLLOeuI2McBih2gkQcHJ-6" target="VLLOeuI2McBih2gkQcHJ-9">
          <mxGeometry relative="1" as="geometry" />
        </mxCell>
        <mxCell id="VLLOeuI2McBih2gkQcHJ-6" value="a &amp;gt; b" style="rhombus;whiteSpace=wrap;html=1;" vertex="1" parent="1">
          <mxGeometry x="190" y="310" width="220" height="80" as="geometry" />
        </mxCell>
        <mxCell id="VLLOeuI2McBih2gkQcHJ-18" value="" style="edgeStyle=orthogonalEdgeStyle;rounded=0;orthogonalLoop=1;jettySize=auto;html=1;" edge="1" parent="1" source="VLLOeuI2McBih2gkQcHJ-8" target="VLLOeuI2McBih2gkQcHJ-17">
          <mxGeometry relative="1" as="geometry" />
        </mxCell>
        <mxCell id="VLLOeuI2McBih2gkQcHJ-8" value="MAX = a" style="rounded=0;whiteSpace=wrap;html=1;" vertex="1" parent="1">
          <mxGeometry x="240" y="425" width="120" height="60" as="geometry" />
        </mxCell>
        <mxCell id="VLLOeuI2McBih2gkQcHJ-14" style="edgeStyle=orthogonalEdgeStyle;rounded=0;orthogonalLoop=1;jettySize=auto;html=1;exitX=0.5;exitY=0;exitDx=0;exitDy=0;entryX=0.5;entryY=0;entryDx=0;entryDy=0;" edge="1" parent="1" source="VLLOeuI2McBih2gkQcHJ-9" target="VLLOeuI2McBih2gkQcHJ-9">
          <mxGeometry relative="1" as="geometry" />
        </mxCell>
        <mxCell id="VLLOeuI2McBih2gkQcHJ-19" style="edgeStyle=orthogonalEdgeStyle;rounded=0;orthogonalLoop=1;jettySize=auto;html=1;exitX=0.5;exitY=1;exitDx=0;exitDy=0;entryX=0.5;entryY=0;entryDx=0;entryDy=0;" edge="1" parent="1" source="VLLOeuI2McBih2gkQcHJ-9" target="VLLOeuI2McBih2gkQcHJ-17">
          <mxGeometry relative="1" as="geometry">
            <mxPoint x="630" y="570" as="targetPoint" />
          </mxGeometry>
        </mxCell>
        <mxCell id="VLLOeuI2McBih2gkQcHJ-9" value="MAX = b" style="rounded=0;whiteSpace=wrap;html=1;" vertex="1" parent="1">
          <mxGeometry x="470" y="425" width="120" height="60" as="geometry" />
        </mxCell>
        <mxCell id="VLLOeuI2McBih2gkQcHJ-24" style="edgeStyle=orthogonalEdgeStyle;rounded=0;orthogonalLoop=1;jettySize=auto;html=1;exitX=0.5;exitY=1;exitDx=0;exitDy=0;entryX=1;entryY=0.5;entryDx=0;entryDy=0;" edge="1" parent="1" source="VLLOeuI2McBih2gkQcHJ-10" target="VLLOeuI2McBih2gkQcHJ-21">
          <mxGeometry relative="1" as="geometry">
            <Array as="points">
              <mxPoint x="530" y="700" />
            </Array>
          </mxGeometry>
        </mxCell>
        <mxCell id="VLLOeuI2McBih2gkQcHJ-10" value="MAX = c" style="rounded=0;whiteSpace=wrap;html=1;" vertex="1" parent="1">
          <mxGeometry x="470" y="550" width="120" height="60" as="geometry" />
        </mxCell>
        <mxCell id="VLLOeuI2McBih2gkQcHJ-20" style="edgeStyle=orthogonalEdgeStyle;rounded=0;orthogonalLoop=1;jettySize=auto;html=1;exitX=1;exitY=0.5;exitDx=0;exitDy=0;entryX=0;entryY=0.5;entryDx=0;entryDy=0;" edge="1" parent="1" source="VLLOeuI2McBih2gkQcHJ-17" target="VLLOeuI2McBih2gkQcHJ-10">
          <mxGeometry relative="1" as="geometry" />
        </mxCell>
        <mxCell id="VLLOeuI2McBih2gkQcHJ-23" value="" style="edgeStyle=orthogonalEdgeStyle;rounded=0;orthogonalLoop=1;jettySize=auto;html=1;" edge="1" parent="1" source="VLLOeuI2McBih2gkQcHJ-17" target="VLLOeuI2McBih2gkQcHJ-21">
          <mxGeometry relative="1" as="geometry" />
        </mxCell>
        <mxCell id="VLLOeuI2McBih2gkQcHJ-17" value="MAX &amp;gt; c" style="rhombus;whiteSpace=wrap;html=1;" vertex="1" parent="1">
          <mxGeometry x="190" y="540" width="220" height="80" as="geometry" />
        </mxCell>
        <mxCell id="VLLOeuI2McBih2gkQcHJ-26" value="" style="edgeStyle=orthogonalEdgeStyle;rounded=0;orthogonalLoop=1;jettySize=auto;html=1;" edge="1" parent="1" source="VLLOeuI2McBih2gkQcHJ-21" target="VLLOeuI2McBih2gkQcHJ-25">
          <mxGeometry relative="1" as="geometry" />
        </mxCell>
        <mxCell id="VLLOeuI2McBih2gkQcHJ-21" value="Display MAX" style="shape=parallelogram;perimeter=parallelogramPerimeter;whiteSpace=wrap;html=1;fixedSize=1;" vertex="1" parent="1">
          <mxGeometry x="240" y="670" width="120" height="60" as="geometry" />
        </mxCell>
        <mxCell id="VLLOeuI2McBih2gkQcHJ-25" value="End" style="ellipse;whiteSpace=wrap;html=1;" vertex="1" parent="1">
          <mxGeometry x="240" y="760" width="120" height="80" as="geometry" />
        </mxCell>
        <mxCell id="VLLOeuI2McBih2gkQcHJ-27" value="False" style="text;html=1;strokeColor=none;fillColor=none;align=center;verticalAlign=middle;whiteSpace=wrap;rounded=0;" vertex="1" parent="1">
          <mxGeometry x="440" y="320" width="60" height="30" as="geometry" />
        </mxCell>
        <mxCell id="VLLOeuI2McBih2gkQcHJ-28" value="True" style="text;html=1;strokeColor=none;fillColor=none;align=center;verticalAlign=middle;whiteSpace=wrap;rounded=0;" vertex="1" parent="1">
          <mxGeometry x="290" y="390" width="60" height="30" as="geometry" />
        </mxCell>
        <mxCell id="VLLOeuI2McBih2gkQcHJ-29" value="False" style="text;html=1;strokeColor=none;fillColor=none;align=center;verticalAlign=middle;whiteSpace=wrap;rounded=0;" vertex="1" parent="1">
          <mxGeometry x="400" y="550" width="60" height="30" as="geometry" />
        </mxCell>
        <mxCell id="VLLOeuI2McBih2gkQcHJ-30" value="True" style="text;html=1;strokeColor=none;fillColor=none;align=center;verticalAlign=middle;whiteSpace=wrap;rounded=0;" vertex="1" parent="1">
          <mxGeometry x="290" y="630" width="60" height="30" as="geometry" />
        </mxCell>
      </root>
    </mxGraphModel>
  </diagram>
</mxfile>
